<?xml version="1.0" encoding="utf-8"?>
<!-- Generator: Adobe Illustrator 21.0.0, SVG Export Plug-In . SVG Version: 6.00 Build 0)  -->
<svg version="1.1" id="Layer_1" xmlns="http://www.w3.org/2000/svg" xmlns:xlink="http://www.w3.org/1999/xlink" x="0px" y="0px"
	 viewBox="0 0 200 200" style="enable-background:new 0 0 200 200;" xml:space="preserve">
<style type="text/css">
	.st0{fill:#3C2415;}
</style>
<g id="Layer_1_1_">
</g>
<g id="Layer_2">
	<g>
		<path class="st0" d="M142.7,51.9c0.1,0.8,0.1,1.5,0,2.3c0.7-0.1,1.3-0.1,1.9,0l0.7,0.1l-0.4,0.6c-0.4,0.6-0.7,1.3-1,2.1
			c1.3-0.4,2.8-0.5,4.3-0.3c0.1-0.3,0.1-0.6,0.1-0.9c-0.1-0.8-0.2-1.6-0.3-2.3c-0.2-1.2-0.3-2.5-0.4-3.8c-0.2-0.1-0.4-0.1-0.5-0.2
			c-1-0.4-2.2-0.9-3.4-1.1c-0.8-0.1-1.4-0.1-1.9,0c0.1,0.5,0.3,1.1,0.4,1.7C142.4,50.5,142.5,51.2,142.7,51.9z"/>
		<path class="st0" d="M136.2,54.8c0.1,0.4,0.1,0.7,0.1,1.1c0.6-0.3,1.2-0.6,1.8-0.8c1-0.3,2.3-0.7,3.7-0.9c0.2-0.7,0.2-1.5,0.1-2.3
			c-0.1-0.6-0.3-1.2-0.5-1.8c-0.2-0.8-0.5-1.6-0.6-2.4c-0.1-1.2,0.1-2.5,0.3-3.7v-0.1c-1.4-0.2-4.2,1.3-5.2,2.3
			c-0.5,0.6-1,1.2-1.4,2c0.1,0.6,0.3,1.2,0.6,1.9C135.4,51.4,135.8,53,136.2,54.8z"/>
		<path class="st0" d="M146.2,69.6c0.1,0,0.2,0.1,0.4,0.1c2.3-1.8,2.7-5.1,3.1-8.3c0.1-1.3,0.3-2.5,0.5-3.6
			c-1.8-0.7-4.3-0.7-6.2-0.1c-0.1,0-0.2,0.1-0.4,0.1c-0.3,1.7-0.3,3.5-0.1,5.1c0.2,2.3-0.1,4.2-0.7,5.7
			C143.9,69,145.1,69.3,146.2,69.6z"/>
		<path class="st0" d="M120.6,68.5c0.5,0.1,1,0.2,1.5,0.1c0.6-1.1,1.1-1.9,1.2-1.9c0.6-0.9,1.3-1.6,2.1-2.2
			c-0.1-0.1-0.1-0.2-0.2-0.3c-1.2-2.1-1.8-5-1.7-7.7c0.1-1.4,0.3-3.2,1.1-4.9c-0.2-1.2-0.3-2-0.3-2.7c-0.3,0.3-0.6,0.7-0.9,1
			c-2.2,2.4-4.8,5.8-5.8,9.6C116.8,62.5,117.3,67.6,120.6,68.5z"/>
		<path class="st0" d="M125.9,63.7c0,0.1,0.1,0.1,0.1,0.2c1.8-1.3,3.6-2,5.2-2.5c0.9-2,2.4-3.8,4.3-5.1c0-0.5,0-1-0.1-1.4
			c-0.4-1.8-0.8-3.3-1.2-4.6c-0.6-2.1-1.1-3.6-0.7-4.9c-0.1,0.1-0.3,0.1-0.4,0.2c-2.8,1.1-5.2,2.7-6.7,4.6c-1.2,1.5-1.9,3.7-2,6.2
			C124.2,59,124.8,61.8,125.9,63.7z"/>
		<path class="st0" d="M138.4,55.9c-2.6,0.9-4.9,3-6.2,5.4c1.5-0.3,2.7-0.3,2.8-0.3h0.4l-0.2,8.2c0,0.8,0,1.5-0.1,2.2
			c0.9,0.4,1.8,0.4,2.8,0.2c4.4-1,5-5.3,4.7-8.7c-0.2-2.6-0.2-5.6,1.1-8C142.1,54.9,140,55.4,138.4,55.9z"/>
		<path class="st0" d="M165.1,87.1c1.8,1.7,3.8,4.5,4,6.4V94l-0.5-0.1c-0.7-0.1-1.5,0.3-2.3,0.9c0.1,0,0.2,0.1,0.4,0.1
			c0.7,0.2,1.3,0.4,1.9,0.6c3.1,1.4,4.3,4.1,5.1,6.9c0.3,0.9,0.4,1.8,0.6,2.7c0.2,0,0.3,0,0.5,0c0.4,0,1,0.2,1.7,0.5
			c0.6,0.3,1.3,0.7,1.9,1.1c0.5-3-1.5-7.3-2.2-8.6C173.6,93.3,169.4,89.1,165.1,87.1z"/>
		<path class="st0" d="M166.5,111.3c-1-0.2-2-0.6-2.9-1c-1-0.5-2-1-2.9-1.7c-0.2-0.2-0.5-0.4-0.7-0.6c0,0.1,0.1,0.2,0.1,0.3
			c0.8,2.2,0.8,4.5,0.7,6.7c2.8,1.3,6,2,8.8,1.9c0.4,0,0.8-0.1,1.2-0.2c0.3-0.1,0.6-0.1,0.9-0.2c-0.8-1.5-1.3-3.1-1.8-4.7
			C168.7,111.7,167.6,111.5,166.5,111.3z"/>
		<path class="st0" d="M172.9,102.6c-1-3.5-2.4-5.3-4.7-6.4c-0.5-0.2-1.1-0.4-1.8-0.6c-0.2-0.1-0.6-0.1-0.9-0.2
			c-1.2,1.1-2.4,2.6-3.3,3.7c-0.5,0.7-1,1.3-1.4,1.7c-1,1.1-2,2-3.1,2.7c0.7,1.7,1.8,3.2,3.4,4.3c0.9,0.6,1.8,1.2,2.8,1.6
			c0.9,0.4,1.8,0.7,2.8,1c1.6,0.4,3.2,0.5,4.9,0.6c1.1,0.1,2.2,0.1,3.2,0.3c-0.7-1.6-0.9-3.4-1.2-5
			C173.4,105.1,173.2,103.8,172.9,102.6z"/>
		<path class="st0" d="M161.6,98.7c1.8-2.3,4.3-5.4,6.6-5.6c-0.5-2.1-3-5.1-4.7-6.3c-0.4-0.3-0.8-0.5-1.3-0.7
			c-1.6-0.7-3.5-1-5.7-0.8c-4.3,0.4-10.2,2.7-12.7,7.5c-0.8,1.6-1.3,3.7-1.3,5.7c2.1-1.3,4.9-1.2,8.5,0.4c0.4,0.2,0.8,0.4,1.2,0.6
			c1.9,1,3.5,2.2,4.8,3.6c1.1-0.8,2.2-1.7,3.3-2.8C160.7,100,161.1,99.4,161.6,98.7z"/>
		<path class="st0" d="M190.3,27.8c0.4-2.1,1.1-4.2,1.7-6.1c-0.9,0-3.3,0.1-3.6,0.2c-0.2,0.1-0.5,0.1-0.7,0.2
			c-0.1,0.3-0.2,0.6-0.2,0.9c0.6,0.1,1.1,0.3,1.6,0.5l0.4,0.2l-0.2,0.4c-0.9,1.8-0.7,3.8-0.4,6c0.3,2.1,0.5,4.2-0.4,6.2
			c0,0.1,0.1,0.2,0.1,0.4c0.5,1.3,0.7,2.5,0.8,3.7c0.8-1.4,1.3-3,1.6-4.5c0.2-1.2-0.1-2.4-0.4-3.6C190.4,30.7,190.1,29.3,190.3,27.8
			z"/>
		<path class="st0" d="M186.8,22.8c0.3-1.5,0.8-2.3,1.8-3.6c-0.5-0.2-0.9-0.5-1.4-0.7c-2.1-0.9-3.9-1.5-5.6-1.6
			c-0.2,1.1-0.2,2.2-0.2,3.3c0,0.7,0,1.3,0,2C183.2,22.2,185.1,22.5,186.8,22.8z"/>
		<path class="st0" d="M173.4,21.1c1.9,0,3.9,0.3,5.6,0.5l0.8,0.1l-0.5,0.6c-0.1,0.1-0.1,0.1-0.1,0.2c0.5-0.1,1-0.1,1.5-0.1
			c0-0.7,0-1.4,0-2.1c0-1.7,0-3.5,0.7-5.3c-0.1,0-0.1-0.1-0.2-0.1c-1.6-0.7-4.1-0.7-6.6,0c-0.5,0.1-1,0.3-1.5,0.5
			C173.5,17.2,173.6,19.2,173.4,21.1z"/>
		<path class="st0" d="M165,20.3c0,0,3.3-0.6,4.1-0.2c0.2,0.1,0.3,0.2,0.3,0.3c0,0.1,0,0.3,0,0.4c-0.1,0.2-0.2,0.4-0.3,0.6
			c0.5-0.1,1-0.2,1.6-0.3c0.6-0.1,1.2-0.1,1.8-0.1c0.4-2.8,0-6-1.5-7.9c-1.1,1.4-4.6,3.8-4.8,3.9c-0.9,0.5-1.9,0.8-2.8,1.1
			c-1.9,0.6-3.6,1.1-4.7,3.1c-0.5,0.8-1.1,2.1-1.3,3.3c1.3-1.4,2.9-2.5,4.6-3.3C163,20.9,164,20.5,165,20.3z"/>
		<path class="st0" d="M178.4,23.4c-0.7,1.4-0.8,3-0.8,4.6c0,0.5,0,1,0,1.5c2.5,0.2,5.1,0.8,7.1,2l0.3,0.2l-0.1,0.3
			c-0.5,1.3-1,2.6-1.4,4.4l-0.2,0.8c0,0.1-0.1,0.3-0.1,0.4c1.6-0.7,2.9-1.7,3.7-3.4l0.3-0.7l0.4,0.7c0.1,0.3,0.3,0.6,0.4,0.8
			c0.5-1.6,0.3-3.2,0.1-5c-0.2-2-0.5-4.1,0.3-6c-2.4-0.8-6.5-1.3-9.7-0.7C178.7,23.3,178.5,23.4,178.4,23.4z"/>
		<path class="st0" d="M187.4,35.3c-1,1.7-2.6,2.7-4.3,3.4c-0.5,2-1.1,4-2.4,5.5c1,0.5,1.8,1.1,2.4,1.7c0.7,0.8,1.4,1.8,1.9,3.2
			c3.7-4.2,4.6-8,3-12.3C187.8,36.3,187.6,35.8,187.4,35.3z"/>
		<path class="st0" d="M168,29.2c0.7,0.1,1.3,0.3,1.9,0.7l0.3,0.2l-0.1,0.3c-0.1,0.3-0.2,0.6-0.3,0.8c1.1-0.5,2.2-0.9,3.2-1.2
			c1.1-0.3,2.5-0.5,3.9-0.5c0-0.5,0-1,0-1.5c0-2,0-4,1.3-5.7c-2.3-0.3-4.9-0.6-7.3-0.3c-0.7,0.1-1.4,0.2-2,0.4
			c-0.3,0.9-0.5,1.8-0.6,2.7c0,0.5,0,1,0,1.6s0,1.1,0,1.7C168.1,28.6,168.1,28.9,168,29.2z"/>
		<path class="st0" d="M169,38.1c0.2,1.5,0.4,2.8,0.5,4c1.1-0.1,2.2-0.1,2.9,0c1.3,0.1,4.6,0.4,7.5,1.7c1.6-1.8,2.2-4.4,2.7-6.7
			l0.2-0.8c0.4-1.7,0.8-3,1.3-4.2c-0.2-0.1-0.4-0.2-0.6-0.3c-3.2-1.5-7.4-1.9-10.2-1c-1.1,0.3-2.5,0.8-3.8,1.5
			c-0.6,1.9-0.7,3.6-0.4,5.4L169,38.1z"/>
		<path class="st0" d="M158.2,33c1-0.8,2.4-1.7,3.9-2.4c1.5-0.7,3.4-1.4,5.1-1.4c0.1-0.3,0.1-0.6,0.2-0.9c0.1-0.5,0-1,0-1.6
			c0-0.5,0-1.1,0-1.7c0.1-1.4,0.6-3,1.1-4.2c-0.7-0.1-2.5,0.2-3.3,0.3c-1,0.2-1.9,0.5-2.8,0.9c-2,0.9-3.8,2.3-5.3,4.1
			c0,1.3,0.1,2.8,0.5,4.6C157.7,31.5,157.9,32.2,158.2,33z"/>
		<path class="st0" d="M155.8,53.8c0.4,0.2,0.9,0.3,1.3,0.5c0-0.1,0-0.2-0.1-0.3c0-0.1,0-0.2,0-0.3c-2.5-1.4-4.4-4.1-4.8-7
			c-0.7-4.6,1.1-9.4,4.8-12.8c0.1-0.1,0.3-0.3,0.5-0.4c-0.3-0.8-0.6-1.7-0.8-2.6c-0.4-2.1-0.6-3.9-0.5-5.3c-1.4,0.8-2.6,2.2-3.6,4.2
			c-0.8,1.5-1.4,2.9-1.9,4.2c-1.3,3.4-1.9,6.4-1.7,9.3C149.3,46.9,151.9,52,155.8,53.8z"/>
		<path class="st0" d="M169.1,30.3c-1.5-0.7-3.9-0.4-6.7,1c-2.1,1-3.9,2.3-4.8,3.2c-3.5,3.3-5.2,7.8-4.5,12.1c0.4,2.4,2,4.8,4,6.2
			c0.3-3.6,3.8-7.1,7.5-9c0.7-0.4,1.3-0.7,1.9-0.9c0.7-0.3,1.5-0.4,2.2-0.5c-0.1-1.3-0.3-2.5-0.5-4l-0.1-0.5c-0.4-2.4,0-4.7,1.1-7.4
			C169.2,30.3,169.1,30.3,169.1,30.3z"/>
		<path class="st0" d="M179.8,44.6c-2.8-1.3-6.1-1.6-7.5-1.7c-1.2-0.1-3.6-0.1-5.5,0.6c-0.6,0.2-1.2,0.5-1.8,0.9
			c-3.7,2-7.2,5.5-7.1,9c-4.1,20.3-28.5,46.2-35,52.8c-0.3-8.6,0.3-17.4,2.7-25.4c0.5,1.4,1.5,2.5,3,3.2l0,0
			c1.2,0.5,2.6,0.8,4.2,0.8c1.8,0,4.2-0.6,6.1-1.6c2-1.1,3.6-3.1,5-6.1l0.1-0.3c0.9-2.1,2-4.6,3.7-6.1c-0.6-0.2-1.1-0.3-1.7-0.5
			c-1.2-0.3-2.4-0.6-3.6-1.1c-0.9,1.6-2.4,2.7-4.3,3.1c-1.1,0.2-2.1,0.2-3.1-0.2c-0.3,3-1.3,5.2-2.8,6.6c-1.9,1.8-4.1,1.6-4.2,1.5
			c-0.8-0.1-1.6-0.2-2.3-0.4c0.1-0.2,0.2-0.5,0.2-0.7c0.6,0.1,1.4,0.2,2.1,0.3c0,0,1.9,0.2,3.6-1.4c1.8-1.7,2.7-4.7,2.7-9l0.2-7.4
			c-1.6,0.1-7.2,0.7-10.6,5.4c0,0-3.5,4.9-2.6,8.5c0.2,0.8,0.7,1.5,1.4,2.1c-0.1,0.3-0.1,0.6-0.2,0.9c-1-0.7-1.7-1.6-2-2.8
			c-0.6-2.2,0.2-4.6,1.1-6.5c-0.4,0-0.9,0-1.3-0.2c-0.2-0.1-0.5-0.1-0.7-0.2c-3.2-1.5-3.8-6.6-3-9.8c0.1-0.4,0.2-0.7,0.3-1.1
			c0-0.4,0-0.8,0-1.2c-1,0.5-2.2,2.3-3.4,7.3c-0.7,2.9-1.3,7.2,0.1,10.7c0.7,1.8,2.4,4,4.5,5c1,0.4,1.9,0.6,2.8,0.4
			c0.4-0.1,0.8-0.3,1.2-0.6c-1.9,10.2-5.3,35.4,1.3,63.5c-6.5-2.9-29.6-13.3-29.7-15c0-0.3,0.4-0.4,1-0.6c2.3-0.5,7.7-0.4,9-0.9
			c3.7-1.4,6.6-4.1,8.7-7.3c4.6-6.8,3.7-15.4,1.5-23c-1-3.6-2.5-6.9-4.1-10.3c-1.1-2.4-2.8-7.4-5.2-8.7c2.5,1.4-4.2,9.7-7.7,15.8
			c-1.5,2.6-2.4,4.8-1.9,5.9c-1.3-2.8,0.5-4.5,0.3-7.4C95.2,86.7,92.6,81,89,77.3c-4.2-4.3-8.5-7-14.6-8.1c-3-0.6-6.2-0.8-9-2.2
			c-2.5-1.3-4.8-4-6.7-6.2c0,0-2.9,9.4-3.6,22.3C54.8,90,56.5,93.4,61.2,98c1.8,1.7,6.2,5.6,6.6,8.1c0.5,2.9-2.9,2.4-4.3,1
			c-2.2-2.3-3.4-6-5.2-8.6c-2.2-3.2-3.7-6.1-6.9-8.7c-3.7-2.9-8.6-4.3-13.2-5c-4.8-0.7-9.6,0.6-14.4,0.4c-4-0.1-16.2-1.6-16.2-1.6
			c7.2,6.5,7.1,14.9,7.1,14.9c5.4,28.2,21.6,28.8,28.8,29c7.2,0.2,12.3,2,13.1,4.5c0.9,2.5-3.1,3.2-19,2.9
			C21.7,134.7,12.7,158,12.7,158c6.8-2.4,13.2,2.1,13.2,2.1c3.1,2.1,6.5,3.9,9.9,5.3c4,1.6,8.6,2.7,12.9,1.9
			c3.3-0.6,7.1-2.1,9.6-4.5c0.8-0.8,2.1-2.7,3-1.2c0.6,1-0.4,3-0.7,4c-0.9,2.6-1.3,5.1-1.2,7.9c0.1,2.7,0.4,5.4,0.9,8
			c0.1,0.6,13.4-0.8,14.8-1c3.8-0.5,7.8-1.3,11.3-2.9c5.1-2.4,8.4-6.6,10-11.9c2.7-9.2,0.1-18.5-3.8-27c-0.6-1.4-1.8-3-2.6-4.7
			c3.8,1.3,22.3,9.1,35.3,16.1c0,0,8.8,25.7,12.8,35.5l8.3-1.7c0,0-20.2-31.5-21.7-59.8c1.9-5.3,6.4-15.1,14.9-19.2
			c-0.1,1.6,0.2,3.3,1.1,4.8c0.8,1.4,2.2,2.6,4.3,3.5l0,0c1.8,0.8,3.8,1.4,5.6,1.9c0.5,0.1,0.9,0.2,1.3,0.4c1.6,0.5,2.8,1,4.1,1.8
			c0.1,0.1,0.6,0.3,1.2,0.7c1,0.6,1.7,1,2.1,1.2c0.1-0.6,0.1-1.2,0.2-1.9c0.4-3.1,0.7-6-0.4-8.9c-1.3-3.5-3.9-6.4-7.5-8.3
			c-0.4-0.2-0.8-0.4-1.2-0.6c-4-1.8-6.9-1.7-8.8,0.4c-0.5,0.6-0.9,1.2-1.2,1.8c-4.5,2.9-12.1,8.6-16.7,17.1c-0.4-2.9-0.7-5.9-0.9-9
			c25.2-27.3,33.6-45.9,36.1-53.2c0.6,0.7,1.4,1.2,2.1,1.5c1.1,0.5,2.4,0.8,3.7,0.8c2.4,0,4.2-1,6.3-2.2c0.3-0.2,0.7-0.4,1.1-0.6
			c3.9-2.1,7-3.2,10-3.7c0.8-0.1,1.5,0,2.2,0.2c0.3,0.1,0.5,0.1,0.8,0.2c-0.8-3.2-1.7-5.3-2.9-6.6C181.8,45.8,180.9,45.2,179.8,44.6
			z M49.3,115.6c-0.1,0-0.1-0.1-0.2-0.1c-0.9-0.3-2.4-0.7-3.9-0.9c-1.7-0.2-3.4-0.3-5-0.5s-3-0.5-4.1-1s-1.9-1-2.4-1.4
			s-0.8-0.7-0.8-0.7s0.3,0.2,0.9,0.6c0.6,0.3,1.4,0.8,2.5,1.1c1.1,0.4,2.5,0.6,4,0.7s3.2,0.1,5,0.3c0.4,0,0.8,0.1,1.2,0.2
			c-3.3-2-6.4-4-9.1-6.1c-3.6-2.5-6.5-5.2-9-7.4c-1.3-1.1-2.3-2.1-3.2-3.1c-0.9-0.9-1.7-1.7-2.4-2.4c-1.3-1.3-2-2-2-2
			s0.8,0.7,2.2,1.8c0.7,0.6,1.6,1.3,2.6,2.2c1,0.8,2.1,1.8,3.4,2.8c2.6,2,5.6,4.5,9.3,6.9c3.5,2.6,7.6,4.9,11.9,7.5
			c3.8,2.1,7.5,3.8,11,5.3c-1-0.7-2.1-1.5-3-2.6c-0.4-0.5-0.9-1.1-1.3-1.7c-0.4-0.6-0.7-1.3-1.1-1.9c-0.7-1.3-1.4-2.7-2.1-4.1
			c-0.2-0.4-0.3-0.7-0.5-1s-0.4-0.7-0.6-1c-0.4-0.7-0.7-1.3-1.1-1.9c-0.4-0.6-0.7-1.3-1.1-1.9c-0.4-0.6-0.8-1.2-1.1-1.7
			c-1.5-2.3-2.9-4.2-4.3-5.7c-1.4-1.5-2.7-2.5-3.6-3.1c-0.5-0.3-0.9-0.5-1.2-0.6S39.8,92,39.8,92s0.2,0,0.4,0.1
			c0.3,0.1,0.7,0.3,1.2,0.5c1,0.5,2.4,1.5,3.9,2.9s3,3.4,4.6,5.6c0.4,0.6,0.8,1.1,1.2,1.7s0.7,1.2,1.1,1.9c0.4,0.6,0.8,1.3,1.1,2
			c0.2,0.3,0.4,0.7,0.6,1c0.2,0.3,0.3,0.7,0.5,1c0.7,1.4,1.4,2.8,2,4.1c0.3,0.6,0.7,1.2,1,1.9c0.4,0.6,0.8,1.1,1.2,1.6
			c1.7,2,3.7,3.3,5.4,4.3c3.5,1.4,6.8,2.6,9.5,3.7c6.2,2.3,9.9,3.9,9.9,3.9s-3.9-1.2-10.2-3.1C67.1,123.2,58.3,120.5,49.3,115.6z
			 M64,149.4c-0.7,0.5-1.5,0.9-2.4,1.3c-0.4,0.2-0.9,0.3-1.3,0.5c-0.4,0.1-0.9,0.2-1.4,0.3s-0.9,0.2-1.4,0.3s-0.9,0.1-1.4,0.2
			c-1,0.1-1.9,0.2-2.9,0.2c-3.9,0.1-7.6-0.3-10.9-0.5c-0.8,0-1.6-0.1-2.4-0.1c-0.8,0-1.5,0-2.3,0c-1.5,0-2.8,0.1-4,0.4
			c-2.4,0.6-4.2,1.7-5.3,2.4c-0.6,0.4-1,0.7-1.3,0.9s-0.5,0.3-0.5,0.3s0.1-0.1,0.4-0.4c0.3-0.3,0.7-0.6,1.2-1.1
			c1.1-0.9,2.8-2.2,5.3-3c1.2-0.4,2.7-0.7,4.2-0.8c0.8,0,1.5-0.1,2.3-0.1s1.6,0,2.5,0c2.4,0,5,0.2,7.6,0.3c-0.5-0.2-1-0.4-1.5-0.6
			c-1.2-0.5-2.4-1.2-3.7-2c-1.3-0.7-2.5-1.4-3.6-2c-1.1-0.5-2.2-1-3.1-1.2c-0.5-0.2-0.9-0.2-1.3-0.3c-0.4-0.1-0.7-0.1-1-0.1
			c-0.5,0-0.8-0.1-0.8-0.1s0.3,0,0.8-0.1c0.3,0,0.6-0.1,1,0c0.4,0,0.8,0,1.3,0.1c1,0.1,2.1,0.5,3.3,1s2.5,1.2,3.7,1.9
			c1.3,0.7,2.5,1.5,3.6,2.1c1,0.5,1.9,1,2.8,1.2c0.5,0,1,0,1.6,0c1,0,1.9-0.1,2.8-0.2c0.5-0.1,0.9-0.1,1.3-0.2
			c0.4-0.1,0.9-0.2,1.3-0.3c1.8-0.3,3.2-1,4.6-1.8c2.8-1.6,5-3.7,6.4-5.7c1.5-2,2-4,2.1-5.4c0-0.3,0-0.7,0-0.9
			c0-0.3-0.1-0.5-0.1-0.7c0-0.4-0.1-0.6-0.1-0.6s0,0.2,0.1,0.6c0,0.2,0.1,0.4,0.2,0.7c0,0.3,0,0.6,0.1,1c0.1,1.4-0.3,3.6-1.6,5.8
			c-0.6,1.1-1.5,2.3-2.6,3.4C66.8,147.4,65.5,148.4,64,149.4z M83.2,161.5c-0.5,1.7-1.5,3.2-2.6,4.4c-2.1,2.5-4.3,4.1-6.1,5.6
			c-1.8,1.5-3.3,2.7-4.2,3.6c-0.5,0.4-0.8,0.8-1,1.1s-0.4,0.4-0.4,0.4s0.1-0.1,0.3-0.4c0.2-0.3,0.5-0.7,0.9-1.2
			c0.8-1,2.1-2.4,3.8-4.1c1.7-1.6,3.8-3.5,5.6-5.9c1.9-2.3,3-5.5,2.4-8.8c-0.4-2.1-0.8-4.2-1.2-6.3c0.1,0.8,0.1,1.6,0,2.6
			c0,0.3-0.1,0.7-0.2,1.1c-0.1,0.2-0.1,0.4-0.2,0.6c0,0.1-0.1,0.2-0.2,0.3l-0.2,0.2c-0.6,0.6-1.3,0.9-2,1.3c-1.4,0.6-2.8,1.1-3.6,2
			c-0.9,0.9-1.6,1.9-2.2,2.7s-1,1.5-1.2,2s-0.3,0.8-0.3,0.8s0-0.3,0.2-0.9c0.2-0.5,0.5-1.3,1-2.2s1.2-1.9,2-2.9
			c0.9-1.1,2.4-1.7,3.8-2.3c0.7-0.3,1.3-0.6,1.7-1.1c0.4-0.3,0.5-1.1,0.6-1.7c0.2-1.3,0.2-2.5,0.2-3.5c0-0.9,0-1.7,0-2.2
			c0-0.1,0-0.3-0.1-0.4c-0.4-3.1-0.6-6-0.2-8.3c0.4-2.4,1.1-4.2,1.7-5.3c0.3-0.6,0.6-1,0.8-1.3c0.2-0.3,0.3-0.4,0.3-0.4
			s-0.1,0.2-0.2,0.5s-0.4,0.8-0.6,1.4c-0.5,1.2-1,3-1.1,5.3c-0.2,2.3,0.2,5,0.8,8c0.6,3,1.5,6.2,2.1,9.8
			C84,157.8,83.7,159.7,83.2,161.5z M82.6,120.1c-0.7-1.3-1.1-3.4-0.9-6c0.1-1.3,0.2-2.7,0.4-4.2c0-0.4,0.1-0.7,0.1-1.1
			c0.1-0.3,0-0.7,0-1.1s0-0.8,0-1.2c0-0.4-0.1-0.8-0.1-1.2c-0.1-1.1-0.3-2.2-0.6-3.3c0-0.1-0.1-0.1-0.1-0.2c-0.6-1-1.4-1.9-2.4-2.8
			c-1.9-1.8-4-3.1-5.5-4S71,93.6,71,93.6s1.1,0.3,2.7,1s3.9,1.9,5.9,3.8c0.4,0.4,0.8,0.8,1.1,1.2c-0.5-1.4-1.1-2.8-1.9-4.2
			c-1.8-3.3-4-6.2-6-8.9c-1-1.4-1.9-2.6-2.8-3.9c-0.9-1.2-1.7-2.3-2.4-3.4c-1.4-2.1-2.3-4.1-2.7-5.4c-0.3-0.7-0.3-1.2-0.4-1.6
			s-0.1-0.6-0.1-0.6s0.1,0.2,0.2,0.5s0.3,0.9,0.6,1.5c0.6,1.3,1.6,3,3.1,5c0.8,1,1.6,2,2.6,3.2c1,1.1,2,2.4,3,3.7
			c2.1,2.6,4.4,5.5,6.4,9c1.9,3.5,3,7.3,3.1,10.7c0,0.4,0,0.9,0,1.3s0,0.8,0,1.2v0.6c0,0.2,0,0.5-0.1,0.6c-0.1,0.4-0.1,0.8-0.2,1.1
			c-0.3,1.5-0.5,2.8-0.7,4.1c-0.3,2.5-0.2,4.5,0.3,5.8s1.3,1.7,1.2,1.8C84.2,121.7,83.4,121.4,82.6,120.1z M91,122.5
			c-0.4,0.4-0.6,0.7-0.8,0.9c-0.2,0.2-0.3,0.3-0.3,0.3s0.1-0.1,0.2-0.4c0.1-0.2,0.3-0.6,0.6-1c0.6-0.9,1.6-2.1,3-3.3
			c1.4-1.3,3.2-2.6,5.1-4.1c1.4-1.2,2.8-2.5,3.9-4.1c0-1-0.1-2.2-0.5-3.4c-0.3-1.1-0.6-2.1-0.9-3.1s-0.3-2-0.2-2.7
			c0.1-0.4,0.1-0.7,0.2-1s0.2-0.5,0.3-0.7c0.2-0.4,0.3-0.6,0.3-0.6s-0.1,0.2-0.1,0.6c0,0.2-0.1,0.4-0.1,0.7c0,0.3,0,0.6,0,1
			c0.1,0.7,0.2,1.6,0.5,2.5s0.7,2,1,3.1c0.2,0.8,0.3,1.6,0.4,2.4c0.1-0.2,0.2-0.3,0.2-0.5c1.2-2.4,1.6-5,1.8-7.4
			c0.2-2.4,0-4.6,0-6.5c-0.1-1.9-0.2-3.4-0.2-4.4s0-1.6,0-1.6s0.4,2.3,1.1,6c0.3,1.9,0.6,4.1,0.6,6.6s-0.3,5.4-1.7,8.1
			c-1.3,2.8-3.6,4.7-5.6,6.2s-3.9,2.6-5.5,3.7C92.8,120.7,91.7,121.7,91,122.5z"/>
	</g>
</g>
</svg>
