<?xml version="1.0" encoding="utf-8"?>
<!-- Generator: Adobe Illustrator 21.0.0, SVG Export Plug-In . SVG Version: 6.00 Build 0)  -->
<svg version="1.1" id="Layer_1" xmlns="http://www.w3.org/2000/svg" xmlns:xlink="http://www.w3.org/1999/xlink" x="0px" y="0px"
	 viewBox="0 0 200 200" style="enable-background:new 0 0 200 200;" xml:space="preserve">
<style type="text/css">
	.st0{fill:#E8A713;}
</style>
<path class="st0" d="M100,0C44.8,0,0,44.8,0,100c0,55.2,44.8,100,100,100c55.2,0,100-44.8,100-100C200,44.8,155.2,0,100,0z
	 M122.1,83.1l-1.2,15h-15.3v52H86.2V98H75.9v-15h10.3V73c0-4.4,0.1-11.3,3.3-15.5c3.4-4.5,8-7.5,16-7.5c13,0,18.5,1.9,18.5,1.9
	l-2.6,15.3c0,0-4.3-1.2-8.3-1.2c-4,0-7.6,1.4-7.6,5.5v11.7H122.1z"/>
</svg>
