<?xml version="1.0" encoding="utf-8"?>
<!-- Generator: Adobe Illustrator 21.0.0, SVG Export Plug-In . SVG Version: 6.00 Build 0)  -->
<svg version="1.1" id="Layer_1" xmlns="http://www.w3.org/2000/svg" xmlns:xlink="http://www.w3.org/1999/xlink" x="0px" y="0px"
	 viewBox="0 0 200 200" style="enable-background:new 0 0 200 200;" xml:space="preserve">
<style type="text/css">
	.st0{fill:#E8A713;}
</style>
<polygon class="st0" points="138.4,78.5 138.4,63.7 138.4,61.5 136.2,61.5 121.5,61.6 121.5,78.5 "/>
<path class="st0" d="M127.4,100c0,15.1-12.3,27.3-27.3,27.3c-15.1,0-27.3-12.3-27.3-27.3c0-3.6,0.7-7.1,2-10.3H59.8v40.9
	c0,5.3,4.3,9.6,9.6,9.6h61.3c5.3,0,9.6-4.3,9.6-9.6V89.7h-14.9C126.6,92.9,127.4,96.4,127.4,100z"/>
<path class="st0" d="M100,117.6c9.7,0,17.6-7.9,17.6-17.6c0-3.8-1.2-7.4-3.3-10.3c-3.2-4.4-8.4-7.3-14.3-7.3
	c-5.9,0-11.1,2.9-14.3,7.3c-2.1,2.9-3.3,6.4-3.3,10.3C82.4,109.7,90.3,117.6,100,117.6z"/>
<path class="st0" d="M100,0C44.8,0,0,44.8,0,100c0,55.2,44.8,100,100,100c55.2,0,100-44.8,100-100C200,44.8,155.2,0,100,0z
	 M150,89.7v40.9c0,10.7-8.7,19.3-19.3,19.3H69.3c-10.7,0-19.3-8.7-19.3-19.3V89.7V69.3C50,58.7,58.7,50,69.3,50h61.3
	c10.7,0,19.3,8.7,19.3,19.3V89.7z"/>
</svg>
